# xmcd CD database file
#
# Track frame offsets:
#	150
#	20367
#	35087
#
# Disc length: 671 seconds
#
# Revision: 0
# Processed by: cddbd v1.5.1PL0 Copyright (c) Steve Scherf et al.
# Submitted via: CDex 1.51
#
DISCID=1d029d03
DTITLE=speena - キラキラデイズ
DYEAR=2005
DGENRE=JPop
TTITLE0=キラキラデイズ
TTITLE1=シロップロンド
TTITLE2=キャンディ
EXTD=YEAR: 2005
EXTT0=
EXTT1=
EXTT2=
PLAYORDER=
